<mxfile host="app.diagrams.net" modified="2023-02-03T17:23:55.577Z" agent="5.0 (Windows NT 10.0; Win64; x64) AppleWebKit/537.36 (KHTML, like Gecko) Chrome/109.0.0.0 Safari/537.36 Edg/109.0.1518.70" etag="G-kRtK_0gfagLcMtsYbp" version="20.8.13" type="github">
  <diagram id="C5RBs43oDa-KdzZeNtuy" name="Page-1">
    <mxGraphModel dx="998" dy="508" grid="1" gridSize="10" guides="1" tooltips="1" connect="1" arrows="1" fold="1" page="1" pageScale="1" pageWidth="827" pageHeight="1169" math="0" shadow="0">
      <root>
        <mxCell id="WIyWlLk6GJQsqaUBKTNV-0" />
        <mxCell id="WIyWlLk6GJQsqaUBKTNV-1" parent="WIyWlLk6GJQsqaUBKTNV-0" />
        <mxCell id="6yo70VMg6lP2LdjrL4yp-57" style="edgeStyle=orthogonalEdgeStyle;rounded=0;orthogonalLoop=1;jettySize=auto;html=1;entryX=0.5;entryY=1;entryDx=0;entryDy=0;" parent="WIyWlLk6GJQsqaUBKTNV-1" source="6yo70VMg6lP2LdjrL4yp-1" target="6yo70VMg6lP2LdjrL4yp-25" edge="1">
          <mxGeometry relative="1" as="geometry">
            <Array as="points">
              <mxPoint x="40" y="180" />
              <mxPoint x="40" y="530" />
              <mxPoint x="480" y="530" />
            </Array>
          </mxGeometry>
        </mxCell>
        <mxCell id="6yo70VMg6lP2LdjrL4yp-1" value="USER I" style="swimlane;whiteSpace=wrap;html=1;fillColor=#fff2cc;strokeColor=#d6b656;" parent="WIyWlLk6GJQsqaUBKTNV-1" vertex="1">
          <mxGeometry x="80" y="80" width="200" height="200" as="geometry" />
        </mxCell>
        <mxCell id="6yo70VMg6lP2LdjrL4yp-2" value="PK- Username" style="text;html=1;align=center;verticalAlign=middle;resizable=0;points=[];autosize=1;strokeColor=none;fillColor=none;" parent="6yo70VMg6lP2LdjrL4yp-1" vertex="1">
          <mxGeometry x="10" y="50" width="100" height="30" as="geometry" />
        </mxCell>
        <mxCell id="6yo70VMg6lP2LdjrL4yp-3" value="time stamp" style="text;html=1;align=center;verticalAlign=middle;resizable=0;points=[];autosize=1;strokeColor=none;fillColor=none;" parent="6yo70VMg6lP2LdjrL4yp-1" vertex="1">
          <mxGeometry x="10" y="90" width="80" height="30" as="geometry" />
        </mxCell>
        <mxCell id="6yo70VMg6lP2LdjrL4yp-4" value="password" style="text;html=1;align=center;verticalAlign=middle;resizable=0;points=[];autosize=1;strokeColor=none;fillColor=none;" parent="6yo70VMg6lP2LdjrL4yp-1" vertex="1">
          <mxGeometry x="10" y="70" width="70" height="30" as="geometry" />
        </mxCell>
        <mxCell id="6yo70VMg6lP2LdjrL4yp-72" style="edgeStyle=orthogonalEdgeStyle;rounded=0;orthogonalLoop=1;jettySize=auto;html=1;entryX=1;entryY=0.5;entryDx=0;entryDy=0;" parent="WIyWlLk6GJQsqaUBKTNV-1" source="6yo70VMg6lP2LdjrL4yp-5" target="6yo70VMg6lP2LdjrL4yp-20" edge="1">
          <mxGeometry relative="1" as="geometry" />
        </mxCell>
        <mxCell id="6yo70VMg6lP2LdjrL4yp-5" value="VETTING I" style="swimlane;whiteSpace=wrap;html=1;fillColor=#fff2cc;strokeColor=#d6b656;" parent="WIyWlLk6GJQsqaUBKTNV-1" vertex="1">
          <mxGeometry x="380" y="80" width="200" height="200" as="geometry" />
        </mxCell>
        <mxCell id="6yo70VMg6lP2LdjrL4yp-6" value="organisation" style="text;html=1;align=center;verticalAlign=middle;resizable=0;points=[];autosize=1;strokeColor=none;fillColor=none;" parent="6yo70VMg6lP2LdjrL4yp-5" vertex="1">
          <mxGeometry x="15" y="50" width="90" height="30" as="geometry" />
        </mxCell>
        <mxCell id="6yo70VMg6lP2LdjrL4yp-7" value="organization type&amp;nbsp;" style="text;html=1;align=center;verticalAlign=middle;resizable=0;points=[];autosize=1;strokeColor=none;fillColor=none;" parent="6yo70VMg6lP2LdjrL4yp-5" vertex="1">
          <mxGeometry x="15" y="90" width="120" height="30" as="geometry" />
        </mxCell>
        <mxCell id="6yo70VMg6lP2LdjrL4yp-8" value="location" style="text;html=1;align=center;verticalAlign=middle;resizable=0;points=[];autosize=1;strokeColor=none;fillColor=none;" parent="6yo70VMg6lP2LdjrL4yp-5" vertex="1">
          <mxGeometry x="15" y="70" width="60" height="30" as="geometry" />
        </mxCell>
        <mxCell id="6yo70VMg6lP2LdjrL4yp-9" value="contact details" style="text;html=1;align=center;verticalAlign=middle;resizable=0;points=[];autosize=1;strokeColor=none;fillColor=none;" parent="6yo70VMg6lP2LdjrL4yp-5" vertex="1">
          <mxGeometry x="25" y="110" width="100" height="30" as="geometry" />
        </mxCell>
        <mxCell id="6yo70VMg6lP2LdjrL4yp-58" value="link ID" style="text;html=1;align=center;verticalAlign=middle;resizable=0;points=[];autosize=1;strokeColor=none;fillColor=none;" parent="6yo70VMg6lP2LdjrL4yp-5" vertex="1">
          <mxGeometry x="35" y="140" width="60" height="30" as="geometry" />
        </mxCell>
        <mxCell id="6yo70VMg6lP2LdjrL4yp-10" value="SOS" style="swimlane;whiteSpace=wrap;html=1;fillColor=#d5e8d4;strokeColor=#82b366;" parent="WIyWlLk6GJQsqaUBKTNV-1" vertex="1">
          <mxGeometry x="860" y="70" width="200" height="200" as="geometry" />
        </mxCell>
        <mxCell id="6yo70VMg6lP2LdjrL4yp-11" value="SAPS" style="text;html=1;align=center;verticalAlign=middle;resizable=0;points=[];autosize=1;strokeColor=none;fillColor=none;" parent="6yo70VMg6lP2LdjrL4yp-10" vertex="1">
          <mxGeometry x="30" y="50" width="60" height="30" as="geometry" />
        </mxCell>
        <mxCell id="6yo70VMg6lP2LdjrL4yp-13" value="hospitals" style="text;html=1;align=center;verticalAlign=middle;resizable=0;points=[];autosize=1;strokeColor=none;fillColor=none;" parent="6yo70VMg6lP2LdjrL4yp-10" vertex="1">
          <mxGeometry x="30" y="80" width="70" height="30" as="geometry" />
        </mxCell>
        <mxCell id="6yo70VMg6lP2LdjrL4yp-14" value="safe zone" style="text;html=1;align=center;verticalAlign=middle;resizable=0;points=[];autosize=1;strokeColor=none;fillColor=none;" parent="6yo70VMg6lP2LdjrL4yp-10" vertex="1">
          <mxGeometry x="20" y="110" width="80" height="30" as="geometry" />
        </mxCell>
        <mxCell id="6yo70VMg6lP2LdjrL4yp-62" value="location ID" style="text;html=1;align=center;verticalAlign=middle;resizable=0;points=[];autosize=1;strokeColor=none;fillColor=none;" parent="6yo70VMg6lP2LdjrL4yp-10" vertex="1">
          <mxGeometry x="25" y="150" width="80" height="30" as="geometry" />
        </mxCell>
        <mxCell id="6yo70VMg6lP2LdjrL4yp-63" value="" style="edgeStyle=orthogonalEdgeStyle;rounded=0;orthogonalLoop=1;jettySize=auto;html=1;" parent="WIyWlLk6GJQsqaUBKTNV-1" source="6yo70VMg6lP2LdjrL4yp-15" target="6yo70VMg6lP2LdjrL4yp-14" edge="1">
          <mxGeometry relative="1" as="geometry" />
        </mxCell>
        <mxCell id="6yo70VMg6lP2LdjrL4yp-15" value="SOS" style="swimlane;whiteSpace=wrap;html=1;fillColor=#d5e8d4;strokeColor=#82b366;" parent="WIyWlLk6GJQsqaUBKTNV-1" vertex="1">
          <mxGeometry x="640" y="70" width="200" height="200" as="geometry" />
        </mxCell>
        <mxCell id="6yo70VMg6lP2LdjrL4yp-16" value="location" style="text;html=1;align=center;verticalAlign=middle;resizable=0;points=[];autosize=1;strokeColor=none;fillColor=none;" parent="6yo70VMg6lP2LdjrL4yp-15" vertex="1">
          <mxGeometry x="30" y="50" width="60" height="30" as="geometry" />
        </mxCell>
        <mxCell id="6yo70VMg6lP2LdjrL4yp-61" value="location ID" style="text;html=1;align=center;verticalAlign=middle;resizable=0;points=[];autosize=1;strokeColor=none;fillColor=none;" parent="6yo70VMg6lP2LdjrL4yp-15" vertex="1">
          <mxGeometry x="20" y="90" width="80" height="30" as="geometry" />
        </mxCell>
        <mxCell id="6yo70VMg6lP2LdjrL4yp-55" style="edgeStyle=orthogonalEdgeStyle;rounded=0;orthogonalLoop=1;jettySize=auto;html=1;entryX=0.5;entryY=0;entryDx=0;entryDy=0;" parent="WIyWlLk6GJQsqaUBKTNV-1" source="6yo70VMg6lP2LdjrL4yp-20" target="6yo70VMg6lP2LdjrL4yp-37" edge="1">
          <mxGeometry relative="1" as="geometry">
            <Array as="points">
              <mxPoint x="180" y="300" />
              <mxPoint x="620" y="300" />
              <mxPoint x="620" y="50" />
              <mxPoint x="1220" y="50" />
            </Array>
          </mxGeometry>
        </mxCell>
        <mxCell id="6yo70VMg6lP2LdjrL4yp-20" value="SUPPORT INFO" style="swimlane;whiteSpace=wrap;html=1;fillColor=#d5e8d4;strokeColor=#82b366;" parent="WIyWlLk6GJQsqaUBKTNV-1" vertex="1">
          <mxGeometry x="90" y="310" width="200" height="200" as="geometry" />
        </mxCell>
        <mxCell id="6yo70VMg6lP2LdjrL4yp-21" value="Links" style="text;html=1;align=center;verticalAlign=middle;resizable=0;points=[];autosize=1;strokeColor=none;fillColor=none;" parent="6yo70VMg6lP2LdjrL4yp-20" vertex="1">
          <mxGeometry x="35" y="50" width="50" height="30" as="geometry" />
        </mxCell>
        <mxCell id="6yo70VMg6lP2LdjrL4yp-53" value="link ID" style="text;html=1;align=center;verticalAlign=middle;resizable=0;points=[];autosize=1;strokeColor=none;fillColor=none;" parent="6yo70VMg6lP2LdjrL4yp-20" vertex="1">
          <mxGeometry x="30" y="85" width="60" height="30" as="geometry" />
        </mxCell>
        <mxCell id="6yo70VMg6lP2LdjrL4yp-25" value="FORUM" style="swimlane;whiteSpace=wrap;html=1;fillColor=#fff2cc;strokeColor=#d6b656;" parent="WIyWlLk6GJQsqaUBKTNV-1" vertex="1">
          <mxGeometry x="380" y="310" width="200" height="200" as="geometry" />
        </mxCell>
        <mxCell id="6yo70VMg6lP2LdjrL4yp-26" value="Links" style="text;html=1;align=center;verticalAlign=middle;resizable=0;points=[];autosize=1;strokeColor=none;fillColor=none;" parent="6yo70VMg6lP2LdjrL4yp-25" vertex="1">
          <mxGeometry x="35" y="50" width="50" height="30" as="geometry" />
        </mxCell>
        <mxCell id="6yo70VMg6lP2LdjrL4yp-27" value="timestamps" style="text;html=1;align=center;verticalAlign=middle;resizable=0;points=[];autosize=1;strokeColor=none;fillColor=none;" parent="6yo70VMg6lP2LdjrL4yp-25" vertex="1">
          <mxGeometry x="15" y="80" width="80" height="30" as="geometry" />
        </mxCell>
        <mxCell id="6yo70VMg6lP2LdjrL4yp-28" value="message" style="text;html=1;align=center;verticalAlign=middle;resizable=0;points=[];autosize=1;strokeColor=none;fillColor=none;" parent="6yo70VMg6lP2LdjrL4yp-25" vertex="1">
          <mxGeometry x="25" y="110" width="70" height="30" as="geometry" />
        </mxCell>
        <mxCell id="6yo70VMg6lP2LdjrL4yp-56" value="PK- Username" style="text;html=1;align=center;verticalAlign=middle;resizable=0;points=[];autosize=1;strokeColor=none;fillColor=none;" parent="6yo70VMg6lP2LdjrL4yp-25" vertex="1">
          <mxGeometry x="20" y="140" width="100" height="30" as="geometry" />
        </mxCell>
        <mxCell id="6yo70VMg6lP2LdjrL4yp-68" value="flag ID" style="text;html=1;align=left;verticalAlign=middle;resizable=0;points=[];autosize=1;strokeColor=none;fillColor=none;" parent="6yo70VMg6lP2LdjrL4yp-25" vertex="1">
          <mxGeometry x="40" y="160" width="60" height="30" as="geometry" />
        </mxCell>
        <mxCell id="6yo70VMg6lP2LdjrL4yp-64" style="edgeStyle=orthogonalEdgeStyle;rounded=0;orthogonalLoop=1;jettySize=auto;html=1;entryX=-0.024;entryY=0.878;entryDx=0;entryDy=0;entryPerimeter=0;" parent="WIyWlLk6GJQsqaUBKTNV-1" source="6yo70VMg6lP2LdjrL4yp-29" target="6yo70VMg6lP2LdjrL4yp-34" edge="1">
          <mxGeometry relative="1" as="geometry" />
        </mxCell>
        <mxCell id="6yo70VMg6lP2LdjrL4yp-29" value="CONTENT" style="swimlane;whiteSpace=wrap;html=1;fillColor=#d5e8d4;strokeColor=#82b366;" parent="WIyWlLk6GJQsqaUBKTNV-1" vertex="1">
          <mxGeometry x="627" y="310" width="200" height="200" as="geometry" />
        </mxCell>
        <mxCell id="6yo70VMg6lP2LdjrL4yp-31" value="Announcements" style="text;html=1;align=center;verticalAlign=middle;resizable=0;points=[];autosize=1;strokeColor=none;fillColor=none;" parent="6yo70VMg6lP2LdjrL4yp-29" vertex="1">
          <mxGeometry x="5" y="80" width="110" height="30" as="geometry" />
        </mxCell>
        <mxCell id="6yo70VMg6lP2LdjrL4yp-32" value="Tips" style="text;html=1;align=center;verticalAlign=middle;resizable=0;points=[];autosize=1;strokeColor=none;fillColor=none;" parent="6yo70VMg6lP2LdjrL4yp-29" vertex="1">
          <mxGeometry x="35" y="110" width="50" height="30" as="geometry" />
        </mxCell>
        <mxCell id="6yo70VMg6lP2LdjrL4yp-33" value="CONTENT" style="swimlane;whiteSpace=wrap;html=1;fillColor=#d5e8d4;strokeColor=#82b366;" parent="WIyWlLk6GJQsqaUBKTNV-1" vertex="1">
          <mxGeometry x="850" y="310" width="200" height="200" as="geometry" />
        </mxCell>
        <mxCell id="6yo70VMg6lP2LdjrL4yp-34" value="timestamps (announcements)" style="text;html=1;align=center;verticalAlign=middle;resizable=0;points=[];autosize=1;strokeColor=none;fillColor=none;" parent="6yo70VMg6lP2LdjrL4yp-33" vertex="1">
          <mxGeometry x="10" y="50" width="180" height="30" as="geometry" />
        </mxCell>
        <mxCell id="6yo70VMg6lP2LdjrL4yp-35" value="content" style="text;html=1;align=center;verticalAlign=middle;resizable=0;points=[];autosize=1;strokeColor=none;fillColor=none;" parent="6yo70VMg6lP2LdjrL4yp-33" vertex="1">
          <mxGeometry x="30" y="80" width="60" height="30" as="geometry" />
        </mxCell>
        <mxCell id="6yo70VMg6lP2LdjrL4yp-65" value="topics" style="text;html=1;align=center;verticalAlign=middle;resizable=0;points=[];autosize=1;strokeColor=none;fillColor=none;" parent="6yo70VMg6lP2LdjrL4yp-33" vertex="1">
          <mxGeometry x="35" y="120" width="50" height="30" as="geometry" />
        </mxCell>
        <mxCell id="6yo70VMg6lP2LdjrL4yp-70" style="edgeStyle=orthogonalEdgeStyle;rounded=0;orthogonalLoop=1;jettySize=auto;html=1;" parent="WIyWlLk6GJQsqaUBKTNV-1" source="6yo70VMg6lP2LdjrL4yp-37" edge="1">
          <mxGeometry relative="1" as="geometry">
            <mxPoint x="1340" y="170" as="targetPoint" />
          </mxGeometry>
        </mxCell>
        <mxCell id="6yo70VMg6lP2LdjrL4yp-37" value="CHATBOT" style="swimlane;whiteSpace=wrap;html=1;fillColor=#d5e8d4;strokeColor=#82b366;align=center;" parent="WIyWlLk6GJQsqaUBKTNV-1" vertex="1">
          <mxGeometry x="1120" y="70" width="200" height="200" as="geometry" />
        </mxCell>
        <mxCell id="6yo70VMg6lP2LdjrL4yp-41" value="contact us" style="text;html=1;align=left;verticalAlign=middle;resizable=0;points=[];autosize=1;strokeColor=none;fillColor=none;" parent="6yo70VMg6lP2LdjrL4yp-37" vertex="1">
          <mxGeometry x="35" y="50" width="80" height="30" as="geometry" />
        </mxCell>
        <mxCell id="6yo70VMg6lP2LdjrL4yp-30" value="FAQ" style="text;html=1;align=left;verticalAlign=middle;resizable=0;points=[];autosize=1;strokeColor=none;fillColor=none;" parent="6yo70VMg6lP2LdjrL4yp-37" vertex="1">
          <mxGeometry x="40" y="140" width="50" height="30" as="geometry" />
        </mxCell>
        <mxCell id="6yo70VMg6lP2LdjrL4yp-54" value="PK ID" style="text;html=1;align=center;verticalAlign=middle;resizable=0;points=[];autosize=1;strokeColor=none;fillColor=none;" parent="6yo70VMg6lP2LdjrL4yp-37" vertex="1">
          <mxGeometry x="35" y="100" width="50" height="30" as="geometry" />
        </mxCell>
        <mxCell id="6yo70VMg6lP2LdjrL4yp-42" value="CHATBOT" style="swimlane;whiteSpace=wrap;html=1;fillColor=#fff2cc;strokeColor=#d6b656;" parent="WIyWlLk6GJQsqaUBKTNV-1" vertex="1">
          <mxGeometry x="1330" y="70" width="200" height="200" as="geometry" />
        </mxCell>
        <mxCell id="6yo70VMg6lP2LdjrL4yp-43" value="feedback" style="text;html=1;align=center;verticalAlign=middle;resizable=0;points=[];autosize=1;strokeColor=none;fillColor=none;" parent="6yo70VMg6lP2LdjrL4yp-42" vertex="1">
          <mxGeometry x="40" y="50" width="70" height="30" as="geometry" />
        </mxCell>
        <mxCell id="6yo70VMg6lP2LdjrL4yp-44" value="question" style="text;html=1;align=center;verticalAlign=middle;resizable=0;points=[];autosize=1;strokeColor=none;fillColor=none;" parent="6yo70VMg6lP2LdjrL4yp-42" vertex="1">
          <mxGeometry x="30" y="140" width="70" height="30" as="geometry" />
        </mxCell>
        <mxCell id="6yo70VMg6lP2LdjrL4yp-45" value="contact information" style="text;html=1;align=center;verticalAlign=middle;resizable=0;points=[];autosize=1;strokeColor=none;fillColor=none;" parent="6yo70VMg6lP2LdjrL4yp-42" vertex="1">
          <mxGeometry x="25" y="70" width="120" height="30" as="geometry" />
        </mxCell>
        <mxCell id="6yo70VMg6lP2LdjrL4yp-49" value="timestamp" style="text;html=1;align=center;verticalAlign=middle;resizable=0;points=[];autosize=1;strokeColor=none;fillColor=none;" parent="6yo70VMg6lP2LdjrL4yp-42" vertex="1">
          <mxGeometry x="45" y="90" width="80" height="30" as="geometry" />
        </mxCell>
        <mxCell id="6yo70VMg6lP2LdjrL4yp-69" style="edgeStyle=orthogonalEdgeStyle;rounded=0;orthogonalLoop=1;jettySize=auto;html=1;entryX=0.75;entryY=1;entryDx=0;entryDy=0;" parent="WIyWlLk6GJQsqaUBKTNV-1" source="6yo70VMg6lP2LdjrL4yp-50" target="6yo70VMg6lP2LdjrL4yp-25" edge="1">
          <mxGeometry relative="1" as="geometry">
            <Array as="points">
              <mxPoint x="1220" y="530" />
              <mxPoint x="530" y="530" />
            </Array>
          </mxGeometry>
        </mxCell>
        <mxCell id="6yo70VMg6lP2LdjrL4yp-50" value="DATA POLICY" style="swimlane;whiteSpace=wrap;html=1;fillColor=#d5e8d4;strokeColor=#82b366;align=center;" parent="WIyWlLk6GJQsqaUBKTNV-1" vertex="1">
          <mxGeometry x="1120" y="310" width="200" height="200" as="geometry" />
        </mxCell>
        <mxCell id="6yo70VMg6lP2LdjrL4yp-51" value="Flags" style="text;html=1;align=left;verticalAlign=middle;resizable=0;points=[];autosize=1;strokeColor=none;fillColor=none;" parent="6yo70VMg6lP2LdjrL4yp-50" vertex="1">
          <mxGeometry x="35" y="50" width="50" height="30" as="geometry" />
        </mxCell>
        <mxCell id="6yo70VMg6lP2LdjrL4yp-52" value="Tags" style="text;html=1;align=left;verticalAlign=middle;resizable=0;points=[];autosize=1;strokeColor=none;fillColor=none;" parent="6yo70VMg6lP2LdjrL4yp-50" vertex="1">
          <mxGeometry x="40" y="140" width="50" height="30" as="geometry" />
        </mxCell>
        <mxCell id="6yo70VMg6lP2LdjrL4yp-67" value="flag ID" style="text;html=1;align=left;verticalAlign=middle;resizable=0;points=[];autosize=1;strokeColor=none;fillColor=none;" parent="6yo70VMg6lP2LdjrL4yp-50" vertex="1">
          <mxGeometry x="40" y="85" width="60" height="30" as="geometry" />
        </mxCell>
      </root>
    </mxGraphModel>
  </diagram>
</mxfile>
